<svg width="1em" height="1em" viewBox="0 0 126 200" fill="none" aria-hidden="true" focusable="false" class="h-[160px] w-[100px] lg:h-[200px] lg:w-[124px]" xmlns="http://www.w3.org/2000/svg"><rect width="126" height="200" fill="#151515"></rect><g id="Navigation"><rect width="1680" height="3011" transform="translate(-777 -234)" fill="#F3F4F6"></rect><g id="Footer"><rect x="-736.5" y="-83.5" width="1599" height="2820" rx="4.5" stroke="#9747FF" stroke-dasharray="10 5"></rect><g id="Breakpoint=1560"><rect width="1560" height="755" transform="translate(-717 -64)" fill="black"></rect><g id="Logo" clip-path="url(#clip0_1602_1230)"><g id="Group"><path id="Vector" d="M124.687 3.26231C123.718 0.594082 119.762 0.690235 117.194 0.573478C116.287 0.580346 115.381 0.576912 114.474 0.573478C112.791 0.628423 110.195 0.0755474 108.609 0.666197C107.905 0.690235 107.098 0.487628 106.438 0.738311C105.862 0.755481 105.281 0.776085 104.704 0.796689C103.877 0.824161 103.039 0.851633 102.208 0.879105C100.285 0.844765 98.3582 0.806991 96.4352 0.772651C95.6042 0.793255 94.7731 0.806991 93.9455 0.824161C93.2622 0.848199 92.5719 0.868803 91.8817 0.892841C89.969 1.0302 88.0528 1.16756 86.14 1.30149C85.7108 1.353 85.2747 1.40107 84.8385 1.45258C84.4471 1.50066 84.0453 1.54874 83.6469 1.59681C83.3207 1.64832 82.9979 1.69296 82.6786 1.74104C82.2768 1.79255 81.8819 1.83719 81.487 1.8887C81.0543 1.97799 80.6216 2.06384 80.1923 2.14969C79.6154 2.20463 79.0385 2.26301 78.4582 2.31795C71.6932 2.54116 65.1376 1.91961 58.747 1.3839C53.4792 0.947785 48.2011 0.896275 42.7685 0.992427C39.1834 1.08171 35.6017 1.16413 32.0201 1.24998C30.1623 1.11605 28.3079 0.978691 26.4501 0.834463C23.9948 0.666197 21.694 0.721141 19.2833 0.53227C16.2374 0.295324 13.3837 -0.089285 10.1351 0.0171692C9.99435 0.130491 9.85355 0.243814 9.70933 0.357136C9.60631 0.36057 9.49298 0.364004 9.38653 0.367438C9.35219 0.333098 9.31441 0.298758 9.27664 0.260984C9.29038 0.628423 8.38723 0.903143 8.37006 1.48692C8.37006 1.58651 8.34602 1.90931 8.32885 2.31109C7.45662 2.32139 6.68396 2.49996 5.99373 3.36189C5.21421 6.34261 5.59538 9.72511 5.62286 12.6131L6.19634 33.1382L3.70325 52.9867C1.7596 60.9296 5.67093 68.4054 7.61115 75.6752C8.85426 79.3393 7.16816 82.6497 7.42571 86.3481C7.51156 87.9793 7.3845 89.2361 8.10221 90.5685C11.7114 91.8082 14.9187 91.2965 18.703 91.7464L19.3692 92.3714C17.5732 96.5402 15.6124 100.953 15.5609 105.537C15.5128 106.334 15.5712 107.12 15.6914 107.897C15.554 108.405 15.4029 109.974 15.4098 110.16C15.578 115.352 19.4722 119.579 24.6919 119.679C28.7681 119.751 32.2192 117.223 35.2343 115.211C37.4733 113.762 39.7157 112.302 41.9547 110.843C44.0013 109.229 46.048 107.601 48.0912 105.98C48.6201 105.39 49.142 104.792 49.664 104.198C51.199 102.828 52.7306 101.454 54.2621 100.084C55.2786 98.9166 56.0204 98.0615 56.5835 97.4159C57.5519 96.3102 59.9763 93.429 60.7078 92.5293C67.9673 91.7258 75.0173 93.144 82.1119 90.8364C82.8503 90.7093 83.798 90.541 84.2719 90.4243C84.2376 90.4964 84.1346 90.5651 84.1758 90.6681C89.0006 89.7959 92.9497 89.1194 97.7882 88.5905C99.0038 88.278 100.745 88.5905 101.576 88.1235C102.101 88.6146 102.761 87.9861 103.344 88.1647C107.85 88.5115 112.05 87.4848 115.6 85.5274C116.215 85.4827 117.132 85.2527 117.249 85.2355C118.138 85.081 118.918 84.8578 119.525 84.1847C119.845 83.831 119.979 83.309 120.473 83.1991V83.0858H120.576C120.439 78.9547 120.013 74.5214 119.807 70.2873C119.721 68.4947 119.938 66.7537 119.876 64.9405C119.81 62.9076 120.381 60.7957 120.563 58.8349C120.793 56.4139 120.377 53.9551 120.463 51.462C120.6 50.0472 120.734 48.6221 120.875 47.2073C120.806 45.583 120.745 43.9553 120.679 42.3241C120.693 40.6655 120.707 39 120.717 37.3311C120.521 35.4561 120.322 33.5743 120.123 31.6993C120.583 28.2207 121.04 24.7352 121.497 21.2531C122.492 16.9434 124.086 12.9771 124.762 8.50604C125.006 6.86458 125.267 4.90376 124.68 3.26917L124.687 3.26231ZM87.9704 46.3316C87.9257 47.039 87.8364 47.7258 87.6785 48.368C87.7952 47.7052 87.8948 47.0287 87.9704 46.3316ZM49.2244 28.1486C49.5232 22.3073 49.8082 16.0059 50.1104 10.1475C59.966 10.1441 70.3985 9.24778 80.7624 10.1235C81.9574 11.4387 80.9066 13.4441 81.4629 14.8864C81.8063 17.0464 81.4904 18.7909 81.9643 20.7448L83.7534 45.1366C83.695 45.3804 83.2623 45.6311 83.0151 45.3632C81.0337 37.7913 80.3778 28.3683 71.7 25.7345C65.7352 24.1376 58.5306 24.8141 54.3583 30.1197C52.1399 32.6952 50.3748 35.8373 49.6091 39.1958C49.6228 39.0859 49.6297 38.9794 49.6537 38.8627C49.7396 35.5866 49.1832 31.3181 49.2244 28.1486ZM78.5818 45.14L77.8915 45.4319C71.0476 45.5555 63.6816 45.7341 56.7415 45.4044C56.7999 43.89 58.2834 40.8166 59.159 39.7589C60.1206 38.5914 61.0477 37.3414 62.3149 36.5344C69.6534 31.8298 77.3318 37.5818 78.5303 45.116C78.5406 45.116 78.5577 45.1297 78.5783 45.1366L78.5818 45.14ZM45.89 103.721C45.8454 103.755 45.8008 103.789 45.7561 103.824C45.8488 103.748 45.9381 103.673 46.0274 103.597C45.9827 103.642 45.9381 103.68 45.89 103.721ZM56.7518 93.2402C56.7518 93.2402 56.7758 93.2127 56.7861 93.199C56.8033 93.1921 56.817 93.1921 56.8376 93.1852C56.8102 93.2024 56.7793 93.2196 56.7518 93.2402ZM35.3785 107.193C31.7351 109.929 27.7653 111.993 22.9268 111.513C21.6837 110.942 20.7325 109.85 20.214 108.645C20.1831 108.456 20.1624 108.271 20.1384 108.085C20.1556 108.161 20.1693 108.212 20.1762 108.212C20.1659 107.958 20.2586 107.512 20.4131 106.976C20.5058 106.942 21.4468 105.589 21.5189 105.585C21.512 105.393 22.0924 104.868 22.24 104.744C23.0539 103.892 23.9261 103.127 24.7434 102.282C26.9824 100.235 29.0394 98.1851 31.2783 96.1419C32.3738 94.9606 33.5825 94.0266 34.678 92.8453C36.1134 91.4201 37.5488 89.9882 38.9808 88.563C39.9664 87.5534 41.5151 85.9257 42.6861 84.7067C43.9773 83.5872 45.265 82.4677 46.5803 81.3448L45.4161 81.932L35.8353 87.8866C35.4609 87.8969 35.0317 88.3879 34.7501 87.9209C36.3744 83.4429 39.8153 80.6545 43.1566 77.2411C43.2321 77.1896 43.318 77.1347 43.3798 77.0935C44.3791 76.4479 46.8103 75.8229 47.5521 75.7336C50.1619 75.4074 55.3576 75.2803 57.7305 76.2041C59.0526 76.7123 60.4846 77.4437 61.635 78.2404C57.5141 90.5857 45.9553 100.204 35.3888 107.196L35.3785 107.193ZM114.484 18.475C112.716 27.6678 112.276 37.9046 113.598 46.9635C113.423 46.936 113.451 47.7533 113.633 48.0521L113.746 48.4882L113.646 48.3886C114 53.986 113.825 59.0134 113.2 64.81C113.145 69.7653 113.241 75.2116 112.64 79.5419C112.245 79.6003 111.562 79.7308 111.229 79.7789C111.013 79.8235 110.8 79.8647 110.58 79.9094C110.185 79.9609 109.787 80.0089 109.392 80.0604C108.705 80.1154 108.022 80.1738 107.331 80.2321C106.899 80.3249 106.466 80.4107 106.037 80.4931C105.68 80.5446 105.312 80.5893 104.955 80.6374C104.522 80.6889 104.09 80.7369 103.657 80.7885C103.114 80.8846 102.572 80.9739 102.029 81.0597C101.785 81.1044 101.531 81.149 101.277 81.1937C101.03 81.2383 100.776 81.283 100.522 81.3276C100.199 81.3757 99.8692 81.4169 99.5464 81.465C98.5643 81.4993 97.2284 81.7088 96.418 82.1174C95.9132 82.2101 95.4084 82.296 94.9036 82.3853C94.5774 82.4368 94.258 82.478 93.9318 82.5261C93.4991 82.5776 93.0664 82.6256 92.6338 82.6772C91.9195 82.7012 91.1606 82.6978 90.5768 82.9622C90.2883 83.0103 90.0033 83.0583 89.7114 83.0995C89.4264 83.1476 89.1345 83.1888 88.846 83.2369C88.4202 83.2884 87.9841 83.3399 87.548 83.3949C87.1496 83.4429 86.7513 83.491 86.3564 83.5391C86.1091 83.5837 85.8584 83.6284 85.6009 83.6765C85.2747 83.728 84.9553 83.7657 84.6291 83.8138C84.0865 83.91 83.5474 83.9993 83.0082 84.0885C82.7919 84.1332 82.5721 84.171 82.3558 84.2156C82.033 84.2671 81.7102 84.3083 81.3805 84.3598C80.9925 84.4491 80.5872 84.5281 80.1923 84.6174C79.9451 84.662 79.691 84.7032 79.4403 84.7479C78.8256 84.8062 78.2109 84.8646 77.5997 84.923C77.2013 84.9745 76.7995 85.0157 76.4081 85.0672C74.2 85.0741 71.9885 85.0707 69.777 85.0707C68.6987 85.105 66.5765 85.5137 65.7935 84.9161C65.7798 84.9058 65.7661 84.8921 65.7523 84.8784C65.7249 84.844 65.6974 84.8097 65.6734 84.7719C65.4467 84.2499 65.979 83.3949 66.106 82.9038C66.549 81.1284 67.0538 78.158 65.9309 76.5372C66.0477 75.4039 66.0167 74.2364 65.7558 73.0104C62.4454 68.505 56.7381 68.4569 51.5802 67.5057C44.1078 67.4508 37.5763 70.2461 32.7069 75.9465C30.5228 77.9108 28.8745 80.6545 26.8382 82.7939C26.6356 82.8145 26.457 82.8317 26.457 82.818C23.308 82.921 20.7016 82.7561 18.0505 82.035C17.3363 81.8393 16.3816 81.7843 15.8562 81.2211C15.5815 80.9293 15.293 74.0578 15.1419 72.9727C14.7951 70.5826 14.3075 68.3299 13.4524 66.2077C12.223 63.1789 10.8254 60.3561 10.6468 56.7092C10.5335 54.3878 10.8941 50.5452 11.4504 48.4401C12.2814 45.2602 13.6516 42.3722 13.9229 38.8936C14.1289 36.27 14.4551 33.6464 14.4105 30.9404C14.359 28.0318 13.8267 25.4323 13.6172 22.8155C13.4627 20.3946 13.3013 17.9736 13.1502 15.5526C13.1811 14.6083 13.2154 13.6605 13.2498 12.723C13.2257 12.0122 13.2567 10.2333 13.0644 9.27182C15.3995 8.3412 18.5485 8.90781 21.2579 9.08295C23.6514 8.39271 26.0346 8.6846 28.6444 8.49573C32.8889 8.56098 36.6285 8.63653 40.8249 9.18254C42.013 11.2498 42.0371 13.997 42.3839 16.2944C43.8434 27.5854 41.8928 38.3476 43.3866 49.642C44.2726 53.6873 49.5507 51.1015 52.0197 51.8329C61.8822 52.2553 72.5036 51.9359 82.7884 51.8982C83.4066 51.8226 84.0453 51.6921 84.6531 51.4998C85.3056 51.4311 86.1366 51.2903 86.2362 51.2766C87.3213 51.1427 88.561 50.5486 89.3165 49.9854C92.9085 47.3069 90.927 20.841 91.0095 14.7044C91.0335 12.8157 90.278 9.60835 91.892 8.45453C91.892 8.39271 92.4998 8.1386 92.4827 8.06992C99.6735 7.16677 107.943 7.00194 114.896 7.36595C115.686 7.61319 116.253 8.23818 116.682 8.93529C116.28 12.2388 115.394 15.2264 114.481 18.4784L114.484 18.475Z" fill="#FDC400"></path><path id="Vector_2" d="M108.166 11.6962C107.012 13.6777 108.166 15.6488 108.231 17.2868C108.434 18.0217 108.791 19.0793 109.546 19.3472C110.683 17.2628 112.135 15.4153 111.998 12.7093C111.534 11.3769 109.271 10.7004 108.166 11.6962Z" fill="#FDC400"></path><path id="Vector_3" d="M36.6423 17.1803C37.7721 17.4138 38.9431 17.8843 39.9321 18.0526C39.4925 15.999 39.0289 14.416 37.9197 12.6887C36.9788 11.94 36.0997 11.0472 34.7192 11.4696C33.4864 12.0843 32.9129 13.2965 33.0984 14.6838C33.8264 16.2154 35.461 16.3321 36.6423 17.1769V17.1803Z" fill="#FDC400"></path><path id="Vector_4" d="M26.8897 24.7317C27.1748 22.9151 26.4811 21.4282 26.306 19.7764L24.6885 16.7167L24.1734 16.3356C23.466 15.7655 22.3088 16.2119 21.5739 16.4626C20.269 17.4138 19.5581 18.9866 20.0114 20.556C21.3644 23.1864 24.2078 24.615 26.8897 24.7317Z" fill="#FDC400"></path><path id="Vector_5" d="M98.578 18.6947C99.0072 18.3342 98.8664 17.4619 98.8561 17.3589L98.9591 17.3452C97.9083 17.1666 96.7202 18.0698 95.7277 18.602C94.6323 19.694 92.7264 21.1329 93.3995 22.9632C94.2546 24.0896 95.5423 23.9968 96.5141 24.0793C98.2998 23.0353 98.4818 20.6556 98.578 18.6947Z" fill="#FDC400"></path><path id="Vector_6" d="M107.369 28.9658C107.304 27.9803 105.951 28.1623 105.381 28.4885C102.634 30.5146 100.007 33.2171 99.5774 36.7267C101.864 36.9911 105.003 36.5481 106.803 35.5042L106.809 35.6072C107.75 35.3359 108.269 34.5701 108.928 33.9039C109.241 32.1629 108.736 30.2433 107.675 28.8525L107.369 28.9658Z" fill="#FDC400"></path><path id="Vector_7" d="M37.3839 28.722C35.5089 29.4981 33.3593 29.268 31.3469 30.0132C32.9849 31.3147 34.8633 32.7123 36.9959 33.4232C38.1188 33.4884 39.6881 33.7048 40.3337 32.6677C40.605 31.7405 40.7149 30.8923 40.4848 30.0475C39.798 28.9143 38.4347 28.7598 37.3805 28.722H37.3839Z" fill="#FDC400"></path><path id="Vector_8" d="M26.4295 43.8557C25.0491 43.1517 22.5525 41.6408 21.5326 43.6771C20.6604 46.9669 21.6116 50.1262 22.058 53.337L23.1157 52.3171C23.9227 50.1846 26.093 48.9586 26.7283 46.6613C27.1369 45.765 27.3396 44.6043 26.433 43.8557H26.4295Z" fill="#FDC400"></path><path id="Vector_9" d="M102.324 55.9503C102.925 56.5993 103.98 56.5856 105.034 56.431L102.046 51.8398C100.707 50.2601 98.9523 47.4168 96.6446 49.5905C95.9201 50.3975 95.326 51.3006 95.4118 52.4922C96.6034 54.8857 99.7421 56.0808 102.324 55.9503Z" fill="#FDC400"></path><path id="Vector_10" d="M33.6546 56.9427C32.7995 57.4132 32.4183 58.3026 32.463 59.3602C33.7576 61.7846 35.7184 63.9584 38.2424 64.7516C39.0494 62.4371 38.4175 60.2359 38.2768 57.8733C38.1051 55.8816 34.9835 55.758 33.6546 56.9393V56.9427Z" fill="#FDC400"></path><path id="Vector_11" d="M78.5063 62.4783C76.6519 60.8437 74.643 59.7551 72.7509 58.8657C71.5558 58.7318 71.106 57.4269 69.753 57.6432C68.3176 58.2682 67.1431 59.6624 66.9508 61.2283C66.8135 62.0491 66.8238 63.4055 67.4762 63.6905C70.5222 64.3052 74.1966 63.6047 77.5447 63.0518L78.5063 62.4783Z" fill="#FDC400"></path><path id="Vector_12" d="M22.4977 65.1534C21.8967 65.5483 21.1241 65.7063 20.8116 66.4309C19.9222 69.3463 19.3556 72.7632 19.5891 75.7061C21.0382 74.336 21.282 72.5297 23.0403 71.3484C23.7168 70.2701 24.4997 69.2983 25.4235 68.4535C25.7016 67.5229 25.3307 66.6575 24.7985 65.957C24.1048 65.538 23.3802 65.0882 22.4977 65.15V65.1534Z" fill="#FDC400"></path><path id="Vector_13" d="M99.8281 69.1746C101.466 70.5173 103.643 70.5448 105.408 70.5208C106.49 70.3834 108.313 70.119 108.719 69.0201C106.483 67.1589 104.114 66.3862 101.353 66.0016C100.498 66.8464 99.5087 67.8285 99.8246 69.1712L99.8281 69.1746Z" fill="#FDC400"></path><path id="Vector_14" d="M78.9183 76.0461C77.5824 78.3606 76.487 81.1112 76.2432 83.7108C79.1964 82.2891 81.5281 81.2829 84.0349 79.2328C84.7114 78.3503 84.2478 77.2755 83.5748 76.5543C82.5377 75.4177 80.1511 74.4767 78.9148 76.0461H78.9183Z" fill="#FDC400"></path><path id="Vector_15" d="M105.765 156.934C103.121 157.212 93.791 157.49 81.3942 162.089C72.4349 165.409 63.9873 170.862 61.0615 173.369C58.1357 175.876 59.5299 176.851 61.7586 177.827C63.9873 178.798 66.2159 178.524 68.582 176.714C70.9514 174.904 78.053 169.75 86.686 165.296C95.3191 160.839 104.649 159.025 107.434 158.61C110.219 158.191 108.41 156.663 105.762 156.938L105.765 156.934Z" fill="#FDC400"></path></g><g id="Group_2"><path id="Vector_16" d="M107.719 18.2208C108.595 16.0231 109.824 14.0108 109.357 11.3425C108.739 10.0719 106.414 9.67703 105.432 10.7897C104.519 12.8947 105.906 14.7182 106.164 16.3424C106.459 17.043 106.933 18.0457 107.723 18.2208H107.719Z" fill="white"></path><path id="Vector_17" d="M65.8899 64.6761C68.9358 65.2873 72.6171 64.5902 75.9549 64.0374L76.9199 63.4604C75.0655 61.8259 73.0601 60.7407 71.1645 59.8513C69.9695 59.7208 69.5196 58.4125 68.1666 58.6288C66.7312 59.2538 65.5499 60.648 65.3644 62.2208C65.2237 63.0415 65.2305 64.3979 65.8864 64.683L65.8899 64.6761Z" fill="white"></path><path id="Vector_18" d="M99.9518 55.4283C100.584 56.0499 101.634 55.9812 102.682 55.782L99.4813 51.3384C98.0699 49.8206 96.1778 47.0631 93.98 49.3467C93.2967 50.1811 92.7506 51.1186 92.888 52.2999C94.1895 54.6351 97.3797 55.679 99.9518 55.4283Z" fill="white"></path><path id="Vector_19" d="M105.508 33.5125V33.6121C106.449 33.3442 106.974 32.575 107.627 31.9088C107.946 30.1678 107.441 28.2481 106.373 26.8574L106.071 26.9707C106.002 25.9851 104.653 26.1637 104.086 26.4899C101.336 28.516 98.7085 31.2186 98.2827 34.7316C100.566 34.996 103.708 34.553 105.508 33.509V33.5125Z" fill="white"></path><path id="Vector_20" d="M95.0788 23.0937C96.9503 22.2146 97.3486 19.8554 97.6234 17.9118C98.0869 17.5924 98.0251 16.7133 98.0217 16.6137H98.1213C97.0945 16.339 95.8308 17.1254 94.7903 17.565C93.5987 18.5574 91.5692 19.8142 92.074 21.6995C92.826 22.898 94.1172 22.922 95.0753 23.0937H95.0788Z" fill="white"></path><path id="Vector_21" d="M98.063 67.0009C99.7011 68.3402 101.878 68.3677 103.64 68.347C104.725 68.2097 106.548 67.9418 106.957 66.8464C104.722 64.9817 102.349 64.2125 99.5912 63.8313C98.7361 64.6727 97.7505 65.6548 98.0665 67.0043L98.063 67.0009Z" fill="white"></path><path id="Vector_22" d="M75.3093 82.4265C78.0359 80.6064 80.1959 79.2809 82.3936 76.8943C82.9396 75.9259 82.325 74.93 81.5626 74.3085C80.3744 73.3298 77.8779 72.7323 76.8821 74.463C75.8793 76.9424 75.1925 79.8166 75.3127 82.4265H75.3093Z" fill="white"></path><path id="Vector_23" d="M21.5568 70.3216C22.2367 69.2502 23.0162 68.2715 23.94 67.4267C24.2181 66.503 23.8472 65.6307 23.315 64.9336C22.6213 64.5147 21.9002 64.0648 21.0108 64.1266C20.4132 64.5215 19.6406 64.6795 19.3212 65.4041C18.4318 68.323 17.8652 71.7364 18.1022 74.6828C19.5479 73.3092 19.7951 71.4994 21.5568 70.3216Z" fill="white"></path><path id="Vector_24" d="M36.5736 64.2846C37.1058 61.8911 36.2199 59.7826 35.8009 57.4544C35.3957 55.4936 32.2845 55.7339 31.1032 57.0629C30.3065 57.6364 30.0352 58.5601 30.2035 59.6075C31.7763 61.8602 33.9775 63.7936 36.5736 64.2812V64.2846Z" fill="white"></path><path id="Vector_25" d="M24.1221 43.1723C22.7382 42.4684 20.2416 40.9574 19.2252 42.9938C18.3495 46.2835 19.3041 49.4428 19.7471 52.6536L20.8014 51.6337C21.6152 49.5012 23.7787 48.2753 24.4174 45.9779C24.8295 45.0816 25.0286 43.9175 24.1221 43.1723Z" fill="white"></path><path id="Vector_26" d="M26.0554 25.7173C26.1309 23.8835 25.269 22.4824 24.9118 20.865L22.951 18.0114L22.3947 17.6886C21.6324 17.2078 20.5335 17.7847 19.8261 18.1144C18.6379 19.2064 18.1159 20.8513 18.7444 22.3588C20.3893 24.8141 23.3768 25.9096 26.0554 25.7138V25.7173Z" fill="white"></path><path id="Vector_27" d="M40.334 34.3778C40.6087 33.4541 40.7151 32.599 40.4851 31.7577C39.8017 30.6279 38.4384 30.4665 37.3807 30.4356C35.5058 31.2117 33.3595 30.9747 31.3472 31.7268C32.9852 33.0283 34.867 34.4259 36.9927 35.1368C38.119 35.1986 39.6884 35.4218 40.334 34.3778Z" fill="white"></path><path id="Vector_28" d="M35.3545 18.3479C36.4809 18.5848 37.6553 19.0519 38.6409 19.2201C38.2013 17.1666 37.7446 15.5835 36.632 13.8562C35.6911 13.1042 34.812 12.2216 33.4349 12.6371C32.1987 13.2553 31.6287 14.464 31.8141 15.8514C32.5421 17.3864 34.1733 17.5031 35.358 18.3479H35.3545Z" fill="white"></path><path id="Vector_29" d="M7.42246 86.3481C7.50831 87.9758 7.38126 89.2361 8.09896 90.5719C11.7115 91.8116 14.9155 91.2965 18.7032 91.7464L19.3728 92.3714C17.5734 96.5368 15.616 100.953 15.5645 105.537C15.3172 109.517 17.2197 113.429 20.8803 115.242C25.0836 117.107 29.4516 115.637 32.8547 112.876C41.2097 107.773 50.09 101.097 56.7898 93.199C65.4503 91.0802 73.7503 93.5527 82.1156 90.8295C82.8573 90.7059 83.8017 90.5376 84.2756 90.4174C84.2412 90.4861 84.1382 90.5616 84.176 90.6612C89.0042 89.789 92.9533 89.1125 97.7918 88.5836C99.004 88.2711 100.748 88.5836 101.58 88.1166C102.105 88.6077 102.764 87.9793 103.348 88.1578C108.32 88.5356 112.925 87.265 116.689 84.8955C118.018 81.9697 116.566 79.0955 116.73 75.8606C116.943 72.0489 115.992 66.9219 117.057 63.251C116.93 53.2374 117.888 43.1895 116.511 33.485L118.018 22.5683C119.261 16.9262 121.459 11.5898 121.129 5.75883C120.882 4.4436 120.006 3.5851 118.767 3.12151C115.559 2.65449 112.211 2.14969 109.206 2.66135C103.101 2.79185 95.7795 3.30695 90.0687 3.09061L89.8627 2.86053L83.1561 3.52672C77.7235 4.48481 71.3122 4.79731 65.5602 4.44704C56.879 3.85295 49.8084 3.54046 41.5256 3.61257C40.9521 3.62974 40.2619 3.38593 39.7949 3.67095L37.3807 3.65035C28.0368 3.41684 19.7025 3.01162 10.3105 2.3729C8.57972 2.39694 7.17178 1.899 5.99392 3.36533C5.2144 6.34604 5.599 9.72854 5.62304 12.6165L6.19996 33.1416L3.70343 52.9902C1.75978 60.933 5.67455 68.4089 7.61133 75.6786C8.85444 79.3393 7.16835 82.6531 7.4259 86.3515L7.42246 86.3481ZM35.3787 107.193C31.7352 109.929 27.7621 111.993 22.9236 111.513C21.6839 110.942 20.7327 109.85 20.2141 108.645C19.2492 103.006 21.7182 97.6597 23.7031 92.9105C29.6954 81.1319 42.6417 68.9858 56.2506 71.8291C58.0844 72.9246 60.7732 73.1031 62.0369 75.3353L62.0884 76.829C58.4106 89.8577 46.3504 99.9399 35.3822 107.196L35.3787 107.193ZM47.5145 10.1338C58.1119 10.3295 69.4853 9.1688 80.7591 10.1235C81.9542 11.4387 80.9034 13.4441 81.4597 14.8864C81.8065 17.0464 81.4872 18.7909 81.961 20.7448L83.7536 45.1366C83.6952 45.3804 83.2625 45.6311 83.0153 45.3632C81.0304 37.7912 80.378 28.3683 71.7002 25.7344C65.7354 24.1376 58.5308 24.8141 54.3585 30.1162C50.9897 34.031 48.6134 39.237 49.2968 44.5459C47.6896 45.1778 47.5592 43.3509 47.487 42.1936C46.6354 30.8133 46.5015 20.7311 47.5145 10.1338ZM78.7606 45.061L77.8883 45.4319C70.9653 45.559 63.4998 45.741 56.4944 45.3976C55.4814 42.4718 56.4601 40.2019 57.4285 37.7535C59.3756 34.0241 62.9641 30.6107 66.7656 30.4871C69.6536 30.4905 73.2936 31.7989 75.251 34.45C77.3938 37.6024 78.3622 41.3077 78.7606 45.0645V45.061ZM11.3853 42.1044C11.9485 37.5646 11.9897 32.575 11.5501 27.527C10.0838 22.3794 11.0419 16.339 10.7019 11.2567C12.7589 7.78833 17.4463 8.8254 21.2581 9.06921C23.6482 8.37898 26.0348 8.67087 28.6446 8.482C32.8891 8.54724 36.6287 8.62622 40.8251 9.1688C42.0132 11.2361 42.0373 13.9833 42.3841 16.2806C43.8436 27.5716 41.8965 38.3338 43.3868 49.6317C44.2694 53.677 49.5474 51.0877 52.0199 51.8226C61.879 52.245 72.5004 51.9256 82.7886 51.8878C84.6499 51.6543 86.7 51.0122 87.4932 49.3535C88.441 45.1435 88.1938 39.8242 88.3414 35.9472L87.2975 10.6832C87.4898 8.26565 90.2542 8.71551 92.0055 8.11799C99.3028 7.16334 107.795 6.98477 114.9 7.35908C115.686 7.60632 116.256 8.23131 116.686 8.92842C116.284 12.2319 115.395 15.2161 114.485 18.475C112.719 27.6678 112.276 37.9046 113.599 46.9635C113.423 46.936 113.451 47.7533 113.633 48.0521L113.743 48.4882L113.643 48.3886C113.997 53.986 113.822 59.0134 113.2 64.81C113.138 70.0743 113.265 75.9122 112.531 80.3489C109.004 81.5851 104.622 81.5268 100.848 82.4986C88.5475 84.2362 74.832 87.5054 62.2121 86.8048L61.9992 86.6057C64.0355 82.3647 66.848 78.1614 65.7594 73.0001C62.4524 68.4947 56.7451 68.4466 51.5838 67.4954C44.1114 67.4405 37.5765 70.2357 32.7071 75.9328C29.6062 78.7177 27.6144 83.0961 24.0122 85.0501C20.482 85.0638 17.2128 84.765 13.9505 83.6215C13.2912 78.1408 13.4766 72.5331 11.035 67.5538C10.2521 65.3698 8.7892 63.2475 8.63123 60.6686L8.42176 60.442C7.95473 54.5149 9.92242 48.3027 11.3784 42.1112L11.3853 42.1044Z" fill="white"></path><path id="Vector_30" d="M36.3814 88.4222C36.0071 88.4428 35.5882 88.9408 35.2928 88.4806C36.8553 83.9134 40.3134 81.0494 43.6272 77.509C36.4604 82.2307 30.5402 88.5562 26.1996 95.9187C25.1213 98.0855 23.8988 100.088 23.5073 102.351C31.6597 95.7058 39.0702 88.721 46.9994 81.6813L45.8455 82.2891L36.378 88.4222H36.3814Z" fill="white"></path><path id="Vector_31" d="M18.4869 192.095C18.4869 189.035 16.1414 186.978 12.6353 186.978C9.12919 186.978 6.40259 188.918 6.40259 192.153C6.40259 195.388 8.73771 197.287 12.2404 197.287L13.9402 198.369C14.7678 198.887 15.5577 199.447 16.3475 200.003C17.0617 199.615 17.7863 199.365 18.5658 199.221C17.0927 198.489 15.7637 197.775 14.4656 197.033C16.9038 196.315 18.4869 194.447 18.4869 192.102V192.095ZM12.3366 196.425C9.96365 196.425 9.03304 194.44 9.03304 192.572C9.03304 189.897 9.91558 187.823 12.5426 187.84C14.9189 187.84 15.8633 189.966 15.8633 191.827C15.8633 194.53 14.5343 196.425 12.3366 196.425Z" fill="white"></path><path id="Vector_32" d="M31.3678 187.236V191.594C31.3678 192.298 31.3678 193.939 31.0828 194.571C30.5299 195.821 29.7366 196.308 28.2669 196.308C27.5698 196.308 26.9688 196.123 26.4606 195.69C25.894 195.182 25.7635 194.743 25.6261 194.035C25.4819 193.283 25.5162 192.109 25.5162 191.319V187.236C25.1213 187.263 24.7264 187.308 24.3281 187.308C23.9297 187.308 23.5348 187.267 23.1399 187.236V193.101C23.1399 193.678 23.2189 194.31 23.3974 194.866C23.9744 196.738 26.0485 197.284 27.9647 197.284C29.0052 197.284 30.0972 197.085 30.9557 196.525C32.5972 195.488 32.5834 193.99 32.6281 192.349V187.232C32.4255 187.26 32.1988 187.274 31.9962 187.274C31.7936 187.274 31.5738 187.26 31.3643 187.232L31.3678 187.236Z" fill="white"></path><path id="Vector_33" d="M42.9849 186.978C39.0461 186.978 36.7522 189.293 36.7522 192.153C36.7522 195.419 39.1114 197.287 42.6072 197.287C46.4807 197.287 48.8536 194.904 48.8399 192.095C48.8227 189.866 47.4938 186.978 42.9884 186.978H42.9849ZM42.6827 196.425C40.3098 196.425 39.3792 194.44 39.3792 192.572C39.3792 189.355 40.691 187.84 42.8888 187.84C45.2617 187.84 46.2095 189.966 46.2095 191.827C46.2095 194.21 45.1174 196.425 42.6793 196.425H42.6827Z" fill="white"></path><path id="Vector_34" d="M52.8682 187.239C52.8991 187.442 52.9471 187.641 52.9471 187.844C52.9471 188.057 52.8991 188.256 52.8682 188.458C53.6923 188.362 54.6848 188.256 55.8111 188.256V197.102C56.206 197.074 56.5975 197.03 56.9958 197.03C57.3942 197.03 57.7891 197.074 58.184 197.102V188.256C59.149 188.256 60.0796 188.362 61.0136 188.458C60.9793 188.256 60.9347 188.06 60.9347 187.844C60.9347 187.641 60.9793 187.442 61.0136 187.239H52.8682Z" fill="white"></path><path id="Vector_35" d="M66.4702 187.236V197.095C66.8651 197.067 67.2635 197.026 67.6584 197.026C68.0533 197.026 68.4482 197.067 68.8431 197.095V187.236C68.4482 187.263 68.0533 187.308 67.6584 187.308C67.2635 187.308 66.8651 187.267 66.4702 187.236Z" fill="white"></path><path id="Vector_36" d="M80.4156 187.236H75.0071V197.026H79.4335C82.6787 197.026 85.1923 195.103 85.1923 191.848C85.1923 189.492 83.7981 187.349 80.4156 187.236ZM78.7261 196.195H77.38V188.07H78.9322C81.1608 188.07 82.5653 189.135 82.5653 191.837C82.5653 195.203 80.9101 196.195 78.7261 196.195Z" fill="white"></path><path id="Vector_37" d="M90.7795 187.236V197.095C91.171 197.067 91.5659 197.026 91.9608 197.026C92.3558 197.026 92.7541 197.067 93.149 197.095V187.236C92.7541 187.263 92.3558 187.308 91.9608 187.308C91.5659 187.308 91.171 187.267 90.7795 187.236Z" fill="white"></path><path id="Vector_38" d="M99.5259 187.236V197.026H105.549C105.518 196.827 105.47 196.611 105.47 196.408C105.47 196.205 105.518 195.992 105.549 195.793C104.584 195.907 103.513 195.975 101.895 195.992V192.342H103.544C104.251 192.342 104.904 192.397 105.487 192.469C105.46 192.267 105.408 192.05 105.408 191.848C105.408 191.645 105.46 191.436 105.487 191.233C104.904 191.305 104.251 191.36 103.544 191.36H101.895V188.269C103.509 188.242 104.584 188.359 105.549 188.469C105.518 188.269 105.47 188.057 105.47 187.854C105.47 187.651 105.518 187.438 105.549 187.236H99.5259Z" fill="white"></path><path id="Vector_39" d="M118.083 187.236V193.966C115.851 191.649 113.499 189.464 111.253 187.236H109.684V197.067C109.89 197.054 110.109 197.026 110.312 197.026C110.515 197.026 110.741 197.054 110.947 197.067V190.11L112.675 191.748C114.46 193.458 116.167 195.227 118.008 197.081L119.347 197.091V187.232C119.141 187.26 118.921 187.274 118.712 187.274C118.502 187.274 118.289 187.26 118.083 187.232V187.236Z" fill="white"></path><path id="Vector_40" d="M36.7661 150.186L36.742 150.578C36.6321 152.48 36.5119 154.52 36.5119 156.587C36.5119 161.79 37.264 167.178 40.7942 171.106L40.8251 171.141L40.8594 171.172C41.7419 171.9 43.1327 172.789 44.9905 172.15L45.0386 172.13L45.0901 172.106C46.0345 171.58 46.7419 170.289 46.2302 169.115L46.1581 168.95L46.0104 168.85C40.8834 165.389 41.0345 158.85 41.6286 152.446C41.6286 152.436 41.8312 150.87 41.8312 150.87C41.9583 149.506 42.0922 148.232 43.04 147.46C43.3147 147.394 45.8731 146.79 45.8731 146.79C47.4836 146.433 49.1491 146.059 50.8421 145.544C58.6853 143.322 64.9112 140.121 69.863 135.77C72.442 132.886 75.5223 128.816 75.5223 124.277C75.5223 123.274 75.3712 122.247 75.0312 121.203L75.014 121.152L74.99 121.1C74.2311 119.699 72.7888 118.71 70.8211 118.243C54.3825 115.85 38.8265 123.614 25.0973 130.461C25.0973 130.461 24.984 130.52 24.929 130.547C24.929 130.523 24.929 130.245 24.929 130.245L24.7814 130.149C24.3762 129.678 23.8817 129.493 23.3254 129.599L23.1674 129.63C23.1674 129.63 14.8846 136.718 14.7129 136.866C11.8283 137.601 10.0735 140.341 8.66901 142.566L8.62094 142.642L8.5969 142.724C8.4458 143.25 8.15735 143.792 7.85515 144.366C7.37783 145.272 6.82495 146.316 6.82495 147.453C6.82495 148.092 7.00009 148.758 7.45681 149.445L7.54266 149.575L7.68345 149.644C8.84415 150.255 9.75073 149.482 10.3517 148.971L10.7569 148.638L10.8256 148.528C13.4148 143.926 16.3612 139.222 21.2821 136.725C35.8423 128.346 48.3318 123.854 59.4786 122.989L59.6709 122.975L59.8186 122.855C59.9697 122.731 60.368 122.742 60.7251 122.745C61.2025 122.755 61.7313 122.725 62.2155 122.498C63.1015 122.577 63.984 122.546 64.8356 122.512C66.8617 122.429 68.7745 122.361 70.4605 123.799C70.8692 124.287 71.034 124.83 71.034 125.396C71.034 126.385 70.5601 127.46 70.0931 128.514C70.0931 128.514 69.8287 129.126 69.7669 129.266C65.3267 135.351 57.947 139.723 47.2123 142.631C46.68 142.649 46.1443 142.759 45.6224 142.879C44.6231 143.105 43.9397 143.208 43.3937 142.917C43.5448 141.615 43.823 140.269 44.1286 138.844C44.6265 136.553 45.1382 134.198 45.1382 131.735C45.1382 131.165 45.1107 130.592 45.0489 130.012L45.0352 129.891L44.9768 129.785C44.2865 128.511 42.8889 128.648 42.288 128.707L42.1094 128.727L41.9652 128.841C39.4892 130.822 39.2557 133.524 39.0291 136.138C38.9398 137.189 38.8368 138.274 38.6033 139.328C38.5071 139.458 38.3011 139.747 38.1294 139.977C37.4288 140.029 36.7077 139.888 35.9488 139.737C34.6851 139.479 33.2565 139.184 31.8142 139.905L31.646 139.987L31.5567 140.152C30.4269 142.154 30.111 144.826 30.6501 147.879L30.6879 148.098L30.863 148.243C32.2916 149.414 34.5271 149.565 36.1205 149.345C36.4398 149.496 36.7489 149.795 36.8863 150.042C36.845 150.08 36.7523 150.176 36.7523 150.176L36.7661 150.186Z" fill="white"></path><path id="Vector_41" d="M85.6113 134.5C84.4609 135.887 83.9355 137.611 84.7769 138.83C85.7555 139.218 86.8201 139.074 88.3311 138.298C89.4299 137.735 89.7081 136.653 89.7665 135.231C89.8489 133.267 86.5145 133.411 85.6148 134.5H85.6113Z" fill="white"></path><path id="Vector_42" d="M111.102 142.188C111.988 142.343 111.995 144.191 112.081 145.832C112.4 151.776 114.117 152.597 116.524 151.841C118.928 151.089 116.823 148.383 115.528 141.962C115.003 139.355 114.584 138.552 112.513 138.445C110.123 138.322 108.372 139.101 105.728 141.371C103.815 143.02 101.933 145.904 101.933 145.904C101.933 145.904 102.115 143.861 102.012 141.639C101.971 140.739 101.408 140.049 100.735 139.84C99.6529 139.507 98.506 140.303 97.9497 140.87C97.0877 141.749 95.0926 143.734 92.9909 146.21C91.9676 147.418 89.0075 150.43 88.1215 150.025C87.1428 149.578 87.9704 146.055 88.1765 144.822C88.3001 144.091 88.5267 142.831 87.318 142.628C86.171 142.439 85.2507 142.776 84.5295 143.816C82.8538 145.842 77.4967 153.977 74.9212 153.212C73.9013 152.906 73.527 150.217 74.5744 148.129C75.2886 146.701 75.0242 145.777 74.5194 145.368C74.5538 144.414 73.8429 143.411 72.2736 142.906C68.7228 141.756 61.7518 143.418 55.5637 148.96C50.5501 153.452 49.64 158.967 51.5253 161.076C53.5788 163.376 57.4421 164.104 62.9777 160.035C67.2737 156.876 69.7668 153.349 69.7668 153.349C69.7668 153.349 70.4845 157.528 73.9459 157.528C77.8332 157.528 81.1642 153.091 83.2418 150.221C83.7191 151.893 84.9142 153.668 87.1772 153.672C91.8096 153.682 97.7711 145.269 97.7711 145.269C97.7711 145.269 97.6406 147.625 97.8295 149.427C98.0355 151.364 98.8391 151.632 99.7559 151.804C101.48 152.133 103.338 149.675 105.546 146.859C108.434 143.177 110.316 142.048 111.092 142.185L111.102 142.188ZM70.2716 147.827C69.08 149.342 66.6658 151.999 63.2284 154.812C59.9764 157.47 56.4737 159.616 55.5671 158.778C54.8117 158.081 56.3398 154.578 60.4743 150.739C64.8596 146.663 68.8293 145.516 69.9762 146.457C70.2853 146.708 70.3334 147.243 70.2681 147.827H70.2716Z" fill="white"></path><path id="Vector_43" d="M17.3948 176.638C24.2593 176.47 28.7922 171.958 30.6019 169.437C32.1576 167.154 32.5593 166.199 31.3918 165.334C30.4852 164.664 29.9392 165.588 28.624 167.301C28.624 167.301 26.7078 170.365 23.6309 172.514C20.7292 174.54 17.2746 174.341 17.2746 174.341C14.9978 173.991 16.3714 171.776 16.3714 171.776C16.3714 171.776 20.4098 171.172 23.0883 168.555C26.7765 164.953 26.2442 162.954 25.4612 162.329C24.1391 161.275 21.1825 161.666 19.3521 163.167C16.9792 165.11 14.5205 169.321 13.5899 172.106C13.3358 172.497 13.0713 172.566 12.2849 173.077C10.3756 174.482 6.41966 176.717 4.70609 175.687C2.66972 174.461 4.78164 169.204 4.78164 169.204C7.67651 160.564 9.62359 158.521 11.9038 156.975C12.2334 156.752 12.5322 156.457 12.6833 156.285C13.1675 155.739 13.9367 154.455 12.0102 153.984C11.502 153.861 10.6195 153.943 9.88801 154.249C9.19091 154.541 8.28089 155.19 7.85851 155.887C7.55975 156.381 7.17514 156.773 6.92446 157.247C6.86608 157.357 6.8077 157.47 6.74589 157.576C1.55367 166.886 1.03514 174.369 1.03514 174.43C1.02827 174.496 0.863436 175.876 1.03514 176.838C1.26865 178.146 1.81809 179.022 2.67659 179.499C3.27411 179.832 3.92314 179.887 4.43824 179.856C4.82628 179.832 5.13878 179.757 5.28987 179.715C7.87568 178.991 11.2994 176.759 14.0706 175.478C15.1901 176.8 17.3192 176.642 17.3982 176.638H17.3948ZM17.539 169.118C18.1777 167.816 18.995 166.944 19.2319 166.707C19.5032 166.439 19.7883 166.192 20.0973 165.924L20.1248 165.9C20.9421 165.186 22.247 164.303 22.7655 164.269C22.9407 164.259 23.078 164.283 23.1742 164.331C23.6206 164.54 22.8686 165.392 22.7449 165.564C22.2504 166.261 20.3823 168.596 17.9339 169.139C17.4806 169.238 17.5768 169.194 17.5596 169.2C17.5355 169.187 17.5321 169.159 17.539 169.115V169.118Z" fill="white"></path></g></g></g></g></g><defs><clipPath id="clip0_1602_1230"><rect width="124.088" height="200" fill="white" transform="translate(0.956055)"></rect></clipPath></defs></svg>